<svg width="20" height="21" viewBox="0 0 20 21" fill="none" xmlns="http://www.w3.org/2000/svg">
<path d="M12 5.64614C11.5 5.50383 10.6851 5.49859 10 5.50383C9.77091 5.50558 9.90941 5.4944 9.6 5.50383C8.79258 5.53273 8.00165 5.91781 8 7.00882C7.99825 8.17108 9 8.51495 10 8.51495C11 8.51495 12 8.78026 12 10.0211C12 10.9536 11.1925 11.3621 10.1861 11.4974C9.3861 11.4974 9 11.5272 8 11.3838M10 11.5V12.5M10 4.5V5.5M19 15.5V16.3C19 17.4201 19 17.9802 18.782 18.408C18.5903 18.7843 18.2843 19.0903 17.908 19.282C17.4802 19.5 16.9201 19.5 15.8 19.5H4.2C3.0799 19.5 2.51984 19.5 2.09202 19.282C1.71569 19.0903 1.40973 18.7843 1.21799 18.408C1 17.9802 1 17.4201 1 16.3V15.5M17 8.5C17 12.366 13.866 15.5 10 15.5C6.13401 15.5 3 12.366 3 8.5C3 4.63401 6.13401 1.5 10 1.5C13.866 1.5 17 4.63401 17 8.5Z" stroke="#B1B1B4" stroke-width="1.5" stroke-linecap="round" stroke-linejoin="round"/>
</svg>
