<svg width="14" height="18" viewBox="0 0 14 18" fill="none" xmlns="http://www.w3.org/2000/svg">
<path d="M4.49996 4.83333H3.83329C2.89987 4.83333 2.43316 4.83333 2.07664 5.01499C1.76304 5.17478 1.50807 5.42975 1.34828 5.74335C1.16663 6.09987 1.16663 6.56658 1.16663 7.5V13.8333C1.16663 14.7668 1.16663 15.2335 1.34828 15.59C1.50807 15.9036 1.76304 16.1586 2.07664 16.3183C2.43316 16.5 2.89987 16.5 3.83329 16.5H6.83329C7.76671 16.5 8.23342 16.5 8.58994 16.3183C8.90355 16.1586 9.15851 15.9036 9.3183 15.59C9.49996 15.2335 9.49996 14.7668 9.49996 13.8333V13.1667M12.8333 5.66667V10.5C12.8333 11.4334 12.8333 11.9001 12.6516 12.2567C12.4918 12.5703 12.2369 12.8252 11.9233 12.985C11.5668 13.1667 11.1 13.1667 10.1666 13.1667H7.16663C6.23321 13.1667 5.76649 13.1667 5.40998 12.985C5.09637 12.8252 4.8414 12.5703 4.68162 12.2567C4.49996 11.9001 4.49996 11.4334 4.49996 10.5V4.16667C4.49996 3.23325 4.49996 2.76654 4.68162 2.41002C4.8414 2.09641 5.09637 1.84144 5.40998 1.68166C5.76649 1.5 6.23321 1.5 7.16663 1.5H8.66663M12.8333 5.66667L8.66663 1.5M12.8333 5.66667H9.99996C9.53325 5.66667 9.29989 5.66667 9.12163 5.57584C8.96483 5.49594 8.83735 5.36846 8.75745 5.21166C8.66663 5.0334 8.66663 4.80004 8.66663 4.33333V1.5" stroke="#AEB2B9" stroke-width="1.5" stroke-linecap="round" stroke-linejoin="round"/>
</svg>
