<svg width="32" height="32" viewBox="0 0 32 32" fill="none" xmlns="http://www.w3.org/2000/svg">
<path d="M0 16C0 7.16344 7.16344 0 16 0C24.8366 0 32 7.16344 32 16C32 24.8366 24.8366 32 16 32C7.16344 32 0 24.8366 0 16Z" fill="#F4F4F4"/>
<path d="M12 9.00005C11.0116 9.00082 10.4936 9.01338 10.092 9.21799C9.71569 9.40973 9.40973 9.71569 9.21799 10.092C9 10.5198 9 11.0799 9 12.2V21.8C9 22.9201 9 23.4802 9.21799 23.908C9.40973 24.2843 9.71569 24.5903 10.092 24.782C10.5198 25 11.0799 25 12.2 25H19.8C20.9201 25 21.4802 25 21.908 24.782C22.2843 24.5903 22.5903 24.2843 22.782 23.908C23 23.4802 23 22.9201 23 21.8V12.2C23 11.0799 23 10.5198 22.782 10.092C22.5903 9.71569 22.2843 9.40973 21.908 9.21799C21.5064 9.01338 20.9884 9.00082 20 9.00005M12 9.00005V11H20V9.00005M12 9.00005V8.70711C12 8.25435 12.1799 7.82014 12.5 7.5C12.8201 7.17986 13.2544 7 13.7071 7H18.2929C18.7456 7 19.1799 7.17986 19.5 7.5C19.8201 7.82014 20 8.25435 20 8.70711V9.00005M20 15H18M20 20H18M12 15L13 16L15 14M12 20L13 21L15 19" stroke="#B1B1B4" stroke-width="1.5" stroke-linecap="round" stroke-linejoin="round"/>
</svg>
