<svg width="16" height="21" viewBox="0 0 16 21" fill="none" xmlns="http://www.w3.org/2000/svg">
<path d="M5.25 15.5H11.25M5.25 11.5H11.25M5.25 7.5H6.25M9.25 1.5H4.45C3.3299 1.5 2.76984 1.5 2.34202 1.71799C1.96569 1.90973 1.65973 2.21569 1.46799 2.59202C1.25 3.01984 1.25 3.5799 1.25 4.7V16.3C1.25 17.4201 1.25 17.9802 1.46799 18.408C1.65973 18.7843 1.96569 19.0903 2.34202 19.282C2.76984 19.5 3.3299 19.5 4.45 19.5H12.05C13.1701 19.5 13.7302 19.5 14.158 19.282C14.5343 19.0903 14.8403 18.7843 15.032 18.408C15.25 17.9802 15.25 17.4201 15.25 16.3V7.5M9.25 1.5L15.25 7.5M9.25 1.5V5.9C9.25 6.46005 9.25 6.74008 9.35899 6.95399C9.45487 7.14215 9.60785 7.29513 9.79601 7.39101C10.0099 7.5 10.2899 7.5 10.85 7.5H15.25" stroke="#E6303A" stroke-width="1.5" stroke-linecap="round" stroke-linejoin="round"/>
</svg>
