<svg width="32" height="32" viewBox="0 0 32 32" fill="none" xmlns="http://www.w3.org/2000/svg">
<path d="M0 16C0 7.16344 7.16344 0 16 0C24.8366 0 32 7.16344 32 16C32 24.8366 24.8366 32 16 32C7.16344 32 0 24.8366 0 16Z" fill="#F4F4F4"/>
<path d="M14.2 26.1998H17.8C21.1941 26.1998 22.8912 26.1998 23.9456 25.0048C25 23.8098 25 21.8865 25 18.0398V17.594C25 15.8043 25 12.3998 25 12.3998L19 5.7998C19 5.7998 15.5993 5.7998 14.2268 5.7998C10.8148 5.7998 9.10883 5.7998 8.05442 6.99481C7 8.18981 7 10.1131 7 13.9598V18.0398C7 21.8865 7 23.8098 8.05442 25.0048C9.10883 26.1998 10.8059 26.1998 14.2 26.1998Z" fill="#0B63F3"/>
<path opacity="0.5" d="M19.0195 8.37687L19.0195 5.7998L25 12.3998L22.8406 12.3916C20.9385 12.3916 20.0421 12.5078 19.4512 11.8643C18.8603 11.2207 19.0195 10.4485 19.0195 8.37687Z" fill="white"/>
<path d="M9.47841 22V17.68H10.8764C10.9104 17.68 10.9804 17.681 11.0864 17.683C11.1924 17.685 11.2944 17.692 11.3924 17.704C11.7404 17.746 12.0354 17.867 12.2774 18.067C12.5194 18.267 12.7034 18.521 12.8294 18.829C12.9554 19.137 13.0184 19.474 13.0184 19.84C13.0184 20.206 12.9554 20.543 12.8294 20.851C12.7034 21.159 12.5194 21.413 12.2774 21.613C12.0354 21.813 11.7404 21.934 11.3924 21.976C11.2944 21.988 11.1924 21.995 11.0864 21.997C10.9804 21.999 10.9104 22 10.8764 22H9.47841ZM10.3064 21.232H10.8764C10.9304 21.232 11.0034 21.231 11.0954 21.229C11.1874 21.225 11.2704 21.216 11.3444 21.202C11.5324 21.164 11.6854 21.076 11.8034 20.938C11.9234 20.8 12.0114 20.634 12.0674 20.44C12.1254 20.246 12.1544 20.046 12.1544 19.84C12.1544 19.624 12.1244 19.419 12.0644 19.225C12.0064 19.031 11.9174 18.867 11.7974 18.733C11.6774 18.599 11.5264 18.514 11.3444 18.478C11.2704 18.462 11.1874 18.453 11.0954 18.451C11.0034 18.449 10.9304 18.448 10.8764 18.448H10.3064V21.232ZM15.5922 22.09C15.1602 22.09 14.7872 21.996 14.4732 21.808C14.1612 21.62 13.9202 21.357 13.7502 21.019C13.5822 20.681 13.4982 20.288 13.4982 19.84C13.4982 19.392 13.5822 18.999 13.7502 18.661C13.9202 18.323 14.1612 18.06 14.4732 17.872C14.7872 17.684 15.1602 17.59 15.5922 17.59C16.0242 17.59 16.3962 17.684 16.7082 17.872C17.0222 18.06 17.2632 18.323 17.4312 18.661C17.6012 18.999 17.6862 19.392 17.6862 19.84C17.6862 20.288 17.6012 20.681 17.4312 21.019C17.2632 21.357 17.0222 21.62 16.7082 21.808C16.3962 21.996 16.0242 22.09 15.5922 22.09ZM15.5922 21.322C15.8662 21.326 16.0942 21.267 16.2762 21.145C16.4582 21.023 16.5942 20.85 16.6842 20.626C16.7762 20.402 16.8222 20.14 16.8222 19.84C16.8222 19.54 16.7762 19.28 16.6842 19.06C16.5942 18.84 16.4582 18.669 16.2762 18.547C16.0942 18.425 15.8662 18.362 15.5922 18.358C15.3182 18.354 15.0902 18.413 14.9082 18.535C14.7262 18.657 14.5892 18.83 14.4972 19.054C14.4072 19.278 14.3622 19.54 14.3622 19.84C14.3622 20.14 14.4072 20.4 14.4972 20.62C14.5892 20.84 14.7262 21.011 14.9082 21.133C15.0902 21.255 15.3182 21.318 15.5922 21.322ZM20.1391 22.09C19.7071 22.09 19.3341 21.996 19.0201 21.808C18.7081 21.62 18.4671 21.357 18.2971 21.019C18.1291 20.681 18.0451 20.288 18.0451 19.84C18.0451 19.392 18.1291 18.999 18.2971 18.661C18.4671 18.323 18.7081 18.06 19.0201 17.872C19.3341 17.684 19.7071 17.59 20.1391 17.59C20.6351 17.59 21.0511 17.713 21.3871 17.959C21.7251 18.205 21.9631 18.538 22.1011 18.958L21.2791 19.186C21.1991 18.924 21.0641 18.721 20.8741 18.577C20.6841 18.431 20.4391 18.358 20.1391 18.358C19.8651 18.358 19.6361 18.419 19.4521 18.541C19.2701 18.663 19.1331 18.835 19.0411 19.057C18.9491 19.279 18.9031 19.54 18.9031 19.84C18.9031 20.14 18.9491 20.401 19.0411 20.623C19.1331 20.845 19.2701 21.017 19.4521 21.139C19.6361 21.261 19.8651 21.322 20.1391 21.322C20.4391 21.322 20.6841 21.249 20.8741 21.103C21.0641 20.957 21.1991 20.754 21.2791 20.494L22.1011 20.722C21.9631 21.142 21.7251 21.475 21.3871 21.721C21.0511 21.967 20.6351 22.09 20.1391 22.09Z" fill="white"/>
</svg>
