<svg width="36" height="36" viewBox="0 0 36 36" fill="none" xmlns="http://www.w3.org/2000/svg">
<path d="M0 18C0 8.05888 8.05888 0 18 0C27.9411 0 36 8.05888 36 18C36 27.9411 27.9411 36 18 36C8.05888 36 0 27.9411 0 18Z" fill="#E6303A"/>
<path d="M22.1667 22.1663H22.175M22.5 19.6663H23C23.7766 19.6663 24.1649 19.6663 24.4711 19.7932C24.8795 19.9624 25.204 20.2868 25.3731 20.6952C25.5 21.0015 25.5 21.3898 25.5 22.1663C25.5 22.9429 25.5 23.3312 25.3731 23.6375C25.204 24.0459 24.8795 24.3703 24.4711 24.5395C24.1649 24.6663 23.7766 24.6663 23 24.6663H13C12.2234 24.6663 11.8351 24.6663 11.5289 24.5395C11.1205 24.3703 10.796 24.0459 10.6269 23.6375C10.5 23.3312 10.5 22.9429 10.5 22.1663C10.5 21.3898 10.5 21.0015 10.6269 20.6952C10.796 20.2868 11.1205 19.9624 11.5289 19.7932C11.8351 19.6663 12.2234 19.6663 13 19.6663H13.5M18 20.4997V11.333M18 20.4997L15.5 17.9997M18 20.4997L20.5 17.9997" stroke="white" stroke-width="1.5" stroke-linecap="round" stroke-linejoin="round"/>
</svg>
