<svg width="18" height="20" viewBox="0 0 18 20" fill="none" xmlns="http://www.w3.org/2000/svg">
<path d="M5 15H6M5 11H8M5 7H6M9 1H4.2C3.0799 1 2.51984 1 2.09202 1.21799C1.71569 1.40973 1.40973 1.71569 1.21799 2.09202C1 2.51984 1 3.0799 1 4.2V15.8C1 16.9201 1 17.4802 1.21799 17.908C1.40973 18.2843 1.71569 18.5903 2.09202 18.782C2.51984 19 3.0799 19 4.2 19H7M9 1L15 7M9 1V5.4C9 5.96005 9 6.24008 9.10899 6.45399C9.20487 6.64215 9.35785 6.79513 9.54601 6.89101C9.75992 7 10.0399 7 10.6 7H15M15 7V9M17 12.5V15.5H14M15.5 18.2361C14.9692 18.7111 14.2684 19 13.5 19C11.8431 19 10.5 17.6569 10.5 16C10.5 14.3431 11.8431 13 13.5 13C14.8062 13 15.9175 13.8348 16.3293 15" stroke="#2A2A2E" stroke-width="1.5" stroke-linecap="round" stroke-linejoin="round"/>
</svg>
