<svg width="50" height="43" viewBox="0 0 50 43" fill="none" xmlns="http://www.w3.org/2000/svg">
<path d="M1 22.4998V32.6332C1 35.6201 1 37.1136 1.5813 38.2545C2.09262 39.258 2.90852 40.0739 3.91205 40.5852C5.05291 41.1665 6.54639 41.1665 9.53333 41.1665H40.4667C43.4536 41.1665 44.9471 41.1665 46.088 40.5852C47.0915 40.0739 47.9074 39.258 48.4187 38.2545C49 37.1136 49 35.6201 49 32.6332V22.4998M1 22.4998H10.7987C12.1032 22.4998 12.7554 22.4998 13.3692 22.6472C13.9134 22.7778 14.4337 22.9933 14.9109 23.2858C15.4491 23.6156 15.9103 24.0768 16.8327 24.9992L17.1673 25.3338C18.0897 26.2562 18.5509 26.7174 19.0891 27.0473C19.5663 27.3397 20.0866 27.5552 20.6308 27.6858C21.2446 27.8332 21.8968 27.8332 23.2013 27.8332H26.7987C28.1032 27.8332 28.7554 27.8332 29.3692 27.6858C29.9134 27.5552 30.4337 27.3397 30.9109 27.0473C31.4491 26.7174 31.9103 26.2562 32.8327 25.3338L33.1673 24.9992C34.0897 24.0768 34.5509 23.6156 35.0891 23.2858C35.5663 22.9933 36.0866 22.7778 36.6308 22.6472C37.2446 22.4998 37.8968 22.4998 39.2013 22.4998H49M1 22.4998L7.2037 8.71383C8.4334 5.98118 9.04826 4.61482 10.014 3.61331C10.8678 2.72801 11.9141 2.05146 13.0718 1.63623C14.3814 1.1665 15.8797 1.1665 18.8763 1.1665H31.1237C34.1203 1.1665 35.6186 1.1665 36.9282 1.63623C38.0859 2.05146 39.1322 2.72801 39.986 3.61331C40.9517 4.61482 41.5666 5.98116 42.7963 8.71384L49 22.4998" stroke="#B1B1B4" stroke-width="2" stroke-linecap="round" stroke-linejoin="round"/>
</svg>
