<svg width="24" height="24" viewBox="0 0 24 24" fill="none" xmlns="http://www.w3.org/2000/svg">
<path d="M10.2 22.2001H13.8C17.1941 22.2001 18.8912 22.2001 19.9456 21.0051C21 19.81 21 17.8867 21 14.04V13.5942C21 11.8045 21 9.60005 21 9.60005L12.6 1.80005C12.6 1.80005 11.5993 1.80005 10.2268 1.80005C6.81482 1.80005 5.10883 1.80005 4.05442 2.99505C3 4.19006 3 6.11339 3 9.96005V14.04C3 17.8867 3 19.81 4.05442 21.0051C5.10883 22.2001 6.80589 22.2001 10.2 22.2001Z" fill="#167F3C"/>
<path opacity="0.5" d="M12.5998 4.37712L12.5998 1.80005L21 9.60005L16.4209 9.59187C14.5189 9.59187 13.6224 9.70809 13.0315 9.06452C12.4406 8.42095 12.5998 6.44872 12.5998 4.37712Z" fill="white"/>
<path d="M7.83088 18.09C7.39888 18.09 7.02588 17.996 6.71188 17.808C6.39988 17.62 6.15888 17.357 5.98888 17.019C5.82088 16.681 5.73688 16.288 5.73688 15.84C5.73688 15.392 5.82088 14.999 5.98888 14.661C6.15888 14.323 6.39988 14.06 6.71188 13.872C7.02588 13.684 7.39888 13.59 7.83088 13.59C8.32688 13.59 8.74288 13.713 9.07888 13.959C9.41688 14.205 9.65488 14.538 9.79288 14.958L8.97088 15.186C8.89088 14.924 8.75588 14.721 8.56588 14.577C8.37588 14.431 8.13088 14.358 7.83088 14.358C7.55688 14.358 7.32788 14.419 7.14388 14.541C6.96188 14.663 6.82488 14.835 6.73288 15.057C6.64088 15.279 6.59488 15.54 6.59488 15.84C6.59488 16.14 6.64088 16.401 6.73288 16.623C6.82488 16.845 6.96188 17.017 7.14388 17.139C7.32788 17.261 7.55688 17.322 7.83088 17.322C8.13088 17.322 8.37588 17.249 8.56588 17.103C8.75588 16.957 8.89088 16.754 8.97088 16.494L9.79288 16.722C9.65488 17.142 9.41688 17.475 9.07888 17.721C8.74288 17.967 8.32688 18.09 7.83088 18.09ZM12.2671 18.09C11.9471 18.09 11.6581 18.034 11.4001 17.922C11.1441 17.808 10.9331 17.646 10.7671 17.436C10.6031 17.224 10.4991 16.972 10.4551 16.68L11.3071 16.554C11.3671 16.802 11.4911 16.993 11.6791 17.127C11.8671 17.261 12.0811 17.328 12.3211 17.328C12.4551 17.328 12.5851 17.307 12.7111 17.265C12.8371 17.223 12.9401 17.161 13.0201 17.079C13.1021 16.997 13.1431 16.896 13.1431 16.776C13.1431 16.732 13.1361 16.69 13.1221 16.65C13.1101 16.608 13.0891 16.569 13.0591 16.533C13.0291 16.497 12.9861 16.463 12.9301 16.431C12.8761 16.399 12.8071 16.37 12.7231 16.344L11.6011 16.014C11.5171 15.99 11.4191 15.956 11.3071 15.912C11.1971 15.868 11.0901 15.805 10.9861 15.723C10.8821 15.641 10.7951 15.533 10.7251 15.399C10.6571 15.263 10.6231 15.092 10.6231 14.886C10.6231 14.596 10.6961 14.355 10.8421 14.163C10.9881 13.971 11.1831 13.828 11.4271 13.734C11.6711 13.64 11.9411 13.594 12.2371 13.596C12.5351 13.6 12.8011 13.651 13.0351 13.749C13.2691 13.847 13.4651 13.99 13.6231 14.178C13.7811 14.364 13.8951 14.592 13.9651 14.862L13.0831 15.012C13.0511 14.872 12.9921 14.754 12.9061 14.658C12.8201 14.562 12.7171 14.489 12.5971 14.439C12.4791 14.389 12.3551 14.362 12.2251 14.358C12.0971 14.354 11.9761 14.372 11.8621 14.412C11.7501 14.45 11.6581 14.506 11.5861 14.58C11.5161 14.654 11.4811 14.742 11.4811 14.844C11.4811 14.938 11.5101 15.015 11.5681 15.075C11.6261 15.133 11.6991 15.18 11.7871 15.216C11.8751 15.252 11.9651 15.282 12.0571 15.306L12.8071 15.51C12.9191 15.54 13.0431 15.58 13.1791 15.63C13.3151 15.678 13.4451 15.746 13.5691 15.834C13.6951 15.92 13.7981 16.034 13.8781 16.176C13.9601 16.318 14.0011 16.498 14.0011 16.716C14.0011 16.948 13.9521 17.151 13.8541 17.325C13.7581 17.497 13.6281 17.64 13.4641 17.754C13.3001 17.866 13.1141 17.95 12.9061 18.006C12.7001 18.062 12.4871 18.09 12.2671 18.09ZM15.4733 18L14.1533 13.68H14.9933L16.0733 17.232L17.1713 13.68H18.0113L16.6913 18H15.4733Z" fill="white"/>
</svg>
