<svg width="18" height="16" viewBox="0 0 18 16" fill="none" xmlns="http://www.w3.org/2000/svg">
<path d="M16.5 3.00016H14.8333M16.5 8.00016H12.3333M16.5 13.0002H12.3333M4.83333 14.6668V9.3012C4.83333 9.12786 4.83333 9.04118 4.81632 8.95828C4.80122 8.88473 4.77626 8.81355 4.7421 8.74669C4.70359 8.67132 4.64945 8.60364 4.54116 8.46828L1.79218 5.03205C1.68389 4.89669 1.62974 4.829 1.59124 4.75364C1.55708 4.68677 1.53211 4.6156 1.51701 4.54205C1.5 4.45914 1.5 4.37247 1.5 4.19912V2.66683C1.5 2.20012 1.5 1.96676 1.59083 1.7885C1.67072 1.6317 1.79821 1.50422 1.95501 1.42432C2.13327 1.3335 2.36662 1.3335 2.83333 1.3335H10.1667C10.6334 1.3335 10.8667 1.3335 11.045 1.42432C11.2018 1.50422 11.3293 1.6317 11.4092 1.7885C11.5 1.96676 11.5 2.20012 11.5 2.66683V4.19912C11.5 4.37247 11.5 4.45914 11.483 4.54205C11.4679 4.6156 11.4429 4.68677 11.4088 4.75364C11.3703 4.829 11.3161 4.89669 11.2078 5.03205L8.45884 8.46828C8.35055 8.60364 8.29641 8.67132 8.2579 8.74669C8.22374 8.81355 8.19878 8.88473 8.18368 8.95828C8.16667 9.04118 8.16667 9.12786 8.16667 9.3012V12.1668L4.83333 14.6668Z" stroke="#AEB2B9" stroke-width="1.5" stroke-linecap="round" stroke-linejoin="round"/>
</svg>
