<svg width="20" height="20" viewBox="0 0 20 20" fill="none" xmlns="http://www.w3.org/2000/svg">
<path d="M3.20677 7.75593C1.49991 7.75593 1.5 9.51151 1.5 11.2967C1.5 13.3866 1.87541 14.5849 3.20675 14.5849C4.53808 14.5849 4.91368 12.9574 4.91368 11.2967C4.91368 9.76936 4.79798 7.75593 3.20677 7.75593ZM3.20677 7.75593C3.12287 4.02346 6.16302 1 10 1C13.837 1 16.8771 4.02346 16.7932 7.75593M16.7933 14.5849C18.1246 14.5849 18.5 13.3866 18.5 11.2967C18.5 9.51151 18.5001 7.75593 16.7932 7.75593M16.7933 14.5849C15.4619 14.5849 15.0863 12.9574 15.0863 11.2967C15.0863 9.76936 15.202 7.75593 16.7932 7.75593M16.7933 14.5849C16.7932 15.6038 16.0208 17.9811 12.125 17.9811M12.125 17.9811C12.125 17.9811 11.8107 16.9623 10 16.9623C8.18929 16.9623 7.875 17.6415 7.875 17.9811C7.875 18.3208 8.22917 19 10 19C11.7708 19 12.125 17.9811 12.125 17.9811Z" stroke="white" stroke-width="1.5" stroke-linecap="round" stroke-linejoin="round"/>
</svg>
