<svg width="20" height="21" viewBox="0 0 20 21" fill="none" xmlns="http://www.w3.org/2000/svg">
<path d="M7 15.4999H13M1 13.0999V10.6301C1 9.48136 1 8.90701 1.14805 8.37807C1.2792 7.90953 1.49473 7.46886 1.78405 7.07768C2.11067 6.63608 2.56404 6.28346 3.47078 5.57822L6.07078 3.556C7.47608 2.46298 8.17873 1.91648 8.95461 1.7064C9.63921 1.52104 10.3608 1.52104 11.0454 1.7064C11.8213 1.91648 12.5239 2.46299 13.9292 3.556L16.5292 5.57822C17.436 6.28346 17.8893 6.63608 18.2159 7.07768C18.5053 7.46886 18.7208 7.90953 18.8519 8.37807C19 8.90701 19 9.48136 19 10.6301V13.0999C19 15.3401 19 16.4603 18.564 17.3159C18.1805 18.0685 17.5686 18.6805 16.816 19.064C15.9603 19.4999 14.8402 19.4999 12.6 19.4999H7.4C5.15979 19.4999 4.03969 19.4999 3.18404 19.064C2.43139 18.6805 1.81947 18.0685 1.43597 17.3159C1 16.4603 1 15.3401 1 13.0999Z" stroke="#B1B1B4" stroke-width="1.5" stroke-linecap="round" stroke-linejoin="round"/>
</svg>
