<svg width="20" height="21" viewBox="0 0 20 21" fill="none" xmlns="http://www.w3.org/2000/svg">
<path d="M7 15.5001H13M1 13.1001V10.6302C1 9.48148 1 8.90713 1.14805 8.37819C1.2792 7.90966 1.49473 7.46898 1.78405 7.0778C2.11067 6.6362 2.56404 6.28358 3.47078 5.57834L6.07078 3.55612C7.47608 2.46311 8.17873 1.9166 8.95461 1.70653C9.63921 1.52116 10.3608 1.52116 11.0454 1.70653C11.8213 1.9166 12.5239 2.46311 13.9292 3.55612L16.5292 5.57834C17.436 6.28358 17.8893 6.6362 18.2159 7.0778C18.5053 7.46898 18.7208 7.90966 18.8519 8.37819C19 8.90713 19 9.48148 19 10.6302V13.1001C19 15.3403 19 16.4604 18.564 17.316C18.1805 18.0687 17.5686 18.6806 16.816 19.0641C15.9603 19.5001 14.8402 19.5001 12.6 19.5001H7.4C5.15979 19.5001 4.03969 19.5001 3.18404 19.0641C2.43139 18.6806 1.81947 18.0687 1.43597 17.316C1 16.4604 1 15.3403 1 13.1001Z" stroke="#E6303A" stroke-width="1.5" stroke-linecap="round" stroke-linejoin="round"/>
</svg>
