<svg width="16" height="20" viewBox="0 0 16 20" fill="none" xmlns="http://www.w3.org/2000/svg">
<path d="M5 15H9M5 11H9M5 7H6M13 16V19M13 13H13.01M9 1H4.2C3.0799 1 2.51984 1 2.09202 1.21799C1.71569 1.40973 1.40973 1.71569 1.21799 2.09202C1 2.51984 1 3.0799 1 4.2V15.8C1 16.9201 1 17.4802 1.21799 17.908C1.40973 18.2843 1.71569 18.5903 2.09202 18.782C2.51984 19 3.0799 19 4.2 19H9M9 1L15 7M9 1V5.4C9 5.96005 9 6.24008 9.10899 6.45399C9.20487 6.64215 9.35785 6.79513 9.54601 6.89101C9.75992 7 10.0399 7 10.6 7H15M15 7V9.5" stroke="#2A2A2E" stroke-width="1.5" stroke-linecap="round" stroke-linejoin="round"/>
</svg>
