<svg width="16" height="20" viewBox="0 0 16 20" fill="none" xmlns="http://www.w3.org/2000/svg">
<path d="M4 3.00005C3.01165 3.00082 2.49359 3.01338 2.09202 3.21799C1.71569 3.40973 1.40973 3.71569 1.21799 4.09202C1 4.51984 1 5.07989 1 6.2V15.8C1 16.9201 1 17.4802 1.21799 17.908C1.40973 18.2843 1.71569 18.5903 2.09202 18.782C2.51984 19 3.07989 19 4.2 19H11.8C12.9201 19 13.4802 19 13.908 18.782C14.2843 18.5903 14.5903 18.2843 14.782 17.908C15 17.4802 15 16.9201 15 15.8V6.2C15 5.07989 15 4.51984 14.782 4.09202C14.5903 3.71569 14.2843 3.40973 13.908 3.21799C13.5064 3.01338 12.9884 3.00082 12 3.00005M4 3.00005V5H12V3.00005M4 3.00005V2.70711C4 2.25435 4.17986 1.82014 4.5 1.5C4.82014 1.17986 5.25435 1 5.70711 1H10.2929C10.7456 1 11.1799 1.17986 11.5 1.5C11.8201 1.82014 12 2.25435 12 2.70711V3.00005M12 9H10M12 14H10M4 9L5 10L7 8M4 14L5 15L7 13" stroke="#2A2A2E" stroke-width="1.5" stroke-linecap="round" stroke-linejoin="round"/>
</svg>
