<svg width="20" height="20" viewBox="0 0 20 20" fill="none" xmlns="http://www.w3.org/2000/svg">
<path d="M4.2 19C3.07989 19 2.51984 19 2.09202 18.782C1.71569 18.5903 1.40973 18.2843 1.21799 17.908C1 17.4802 1 16.9201 1 15.8V4.2C1 3.07989 1 2.51984 1.21799 2.09202C1.40973 1.71569 1.71569 1.40973 2.09202 1.21799C2.51984 1 3.0799 1 4.2 1H13.8C14.9201 1 15.4802 1 15.908 1.21799C16.2843 1.40973 16.5903 1.71569 16.782 2.09202C17 2.51984 17 3.0799 17 4.2V5M5 5H11M5 13H6M5 9H9M8.19544 18.8945L9.51022 18.6347C10.2197 18.4945 10.5744 18.4244 10.9052 18.2952C11.1988 18.1806 11.4778 18.0317 11.7365 17.8516C12.0279 17.6486 12.2836 17.393 12.7949 16.8816L17.9434 11.7332C18.6306 11.0459 18.6306 9.93164 17.9434 9.24438C17.2561 8.55713 16.1418 8.55713 15.4546 9.24439L10.2182 14.4808C9.73899 14.96 9.49941 15.1996 9.30591 15.4712C9.13413 15.7123 8.98965 15.9717 8.87512 16.2447C8.7461 16.5522 8.66856 16.882 8.51348 17.5417L8.19544 18.8945Z" stroke="#B1B1B4" stroke-width="1.5" stroke-linecap="round" stroke-linejoin="round"/>
</svg>
