<svg width="24" height="24" viewBox="0 0 24 24" fill="none" xmlns="http://www.w3.org/2000/svg">
<path d="M10.2 22.1998H13.8C17.1941 22.1998 18.8912 22.1998 19.9456 21.0048C21 19.8098 21 17.8865 21 14.0398V13.594C21 11.8043 21 8.39981 21 8.39981L15 1.7998C15 1.7998 11.5993 1.7998 10.2268 1.7998C6.81482 1.7998 5.10883 1.7998 4.05442 2.99481C3 4.18981 3 6.11314 3 9.9598V14.0398C3 17.8865 3 19.8098 4.05442 21.0048C5.10883 22.1998 6.80589 22.1998 10.2 22.1998Z" fill="#EB1515"/>
<path opacity="0.5" d="M15.0195 4.37687L15.0195 1.7998L21 8.3998L18.8406 8.39162C16.9385 8.39162 16.0421 8.50784 15.4512 7.86428C14.8603 7.22071 15.0195 6.44848 15.0195 4.37687Z" fill="white"/>
<path d="M6.3481 18V13.68H8.1721C8.2141 13.68 8.2701 13.682 8.3401 13.686C8.4121 13.688 8.4761 13.694 8.5321 13.704C8.7901 13.744 9.0011 13.829 9.1651 13.959C9.3311 14.089 9.4531 14.253 9.5311 14.451C9.6091 14.647 9.6481 14.866 9.6481 15.108C9.6481 15.35 9.6081 15.57 9.5281 15.768C9.4501 15.964 9.3281 16.127 9.1621 16.257C8.9981 16.387 8.7881 16.472 8.5321 16.512C8.4761 16.52 8.4121 16.526 8.3401 16.53C8.2681 16.534 8.2121 16.536 8.1721 16.536H7.1641V18H6.3481ZM7.1641 15.774H8.1361C8.1781 15.774 8.2241 15.772 8.2741 15.768C8.3241 15.764 8.3701 15.756 8.4121 15.744C8.5221 15.714 8.6071 15.664 8.6671 15.594C8.7271 15.522 8.7681 15.443 8.7901 15.357C8.8141 15.269 8.8261 15.186 8.8261 15.108C8.8261 15.03 8.8141 14.948 8.7901 14.862C8.7681 14.774 8.7271 14.695 8.6671 14.625C8.6071 14.553 8.5221 14.502 8.4121 14.472C8.3701 14.46 8.3241 14.452 8.2741 14.448C8.2241 14.444 8.1781 14.442 8.1361 14.442H7.1641V15.774ZM10.2504 18V13.68H11.6484C11.6824 13.68 11.7524 13.681 11.8584 13.683C11.9644 13.685 12.0664 13.692 12.1644 13.704C12.5124 13.746 12.8074 13.867 13.0494 14.067C13.2914 14.267 13.4754 14.521 13.6014 14.829C13.7274 15.137 13.7904 15.474 13.7904 15.84C13.7904 16.206 13.7274 16.543 13.6014 16.851C13.4754 17.159 13.2914 17.413 13.0494 17.613C12.8074 17.813 12.5124 17.934 12.1644 17.976C12.0664 17.988 11.9644 17.995 11.8584 17.997C11.7524 17.999 11.6824 18 11.6484 18H10.2504ZM11.0784 17.232H11.6484C11.7024 17.232 11.7754 17.231 11.8674 17.229C11.9594 17.225 12.0424 17.216 12.1164 17.202C12.3044 17.164 12.4574 17.076 12.5754 16.938C12.6954 16.8 12.7834 16.634 12.8394 16.44C12.8974 16.246 12.9264 16.046 12.9264 15.84C12.9264 15.624 12.8964 15.419 12.8364 15.225C12.7784 15.031 12.6894 14.867 12.5694 14.733C12.4494 14.599 12.2984 14.514 12.1164 14.478C12.0424 14.462 11.9594 14.453 11.8674 14.451C11.7754 14.449 11.7024 14.448 11.6484 14.448H11.0784V17.232ZM14.5102 18V13.68H17.1502V14.496H15.3262V15.432H16.7902V16.248H15.3262V18H14.5102Z" fill="white"/>
</svg>
