<svg width="18" height="20" viewBox="0 0 18 20" fill="none" xmlns="http://www.w3.org/2000/svg">
<path d="M5.5 19H1C1 15.134 4.13401 12 8 12C8.16812 12 8.33485 12.0059 8.5 12.0176M12 5C12 7.20914 10.2091 9 8 9C5.79086 9 4 7.20914 4 5C4 2.79086 5.79086 1 8 1C10.2091 1 12 2.79086 12 5ZM9.58984 19L11.6148 18.595C11.7914 18.5597 11.8797 18.542 11.962 18.5097C12.0351 18.4811 12.1045 18.4439 12.1689 18.399C12.2414 18.3484 12.3051 18.2848 12.4324 18.1574L16.5898 14C17.1421 13.4477 17.1421 12.5523 16.5898 12C16.0376 11.4477 15.1421 11.4477 14.5898 12L10.4324 16.1574C10.3051 16.2848 10.2414 16.3484 10.1908 16.421C10.1459 16.4853 10.1088 16.5548 10.0801 16.6279C10.0478 16.7102 10.0302 16.7985 9.99484 16.975L9.58984 19Z" stroke="#2A2A2E" stroke-width="1.5" stroke-linecap="round" stroke-linejoin="round"/>
</svg>
