<svg width="22" height="22" viewBox="0 0 22 22" fill="none" xmlns="http://www.w3.org/2000/svg">
<g clip-path="url(#clip0_612_5433)">
<path d="M10.9999 21C16.5227 21 20.9999 16.5228 20.9999 11C20.9999 5.47715 16.5227 1 10.9999 1C5.47703 1 0.999878 5.47715 0.999878 11C0.999878 16.5228 5.47703 21 10.9999 21Z" fill="#F0F0F0"/>
<path d="M20.378 14.4782C20.78 13.3949 21 12.2232 21 11C21 9.77677 20.78 8.60505 20.378 7.52173H1.62199C1.22004 8.60505 1 9.77677 1 11C1 12.2232 1.22004 13.3949 1.62199 14.4782L11 15.3478L20.378 14.4782Z" fill="#0052B4"/>
<path d="M11 21C15.2996 21 18.965 18.2863 20.378 14.4783H1.62195C3.03488 18.2863 6.70031 21 11 21Z" fill="#D80027"/>
</g>
<rect x="1" y="1" width="20" height="20" rx="10" stroke="#CCCFD3"/>
<defs>
<clipPath id="clip0_612_5433">
<rect x="1" y="1" width="20" height="20" rx="10" fill="white"/>
</clipPath>
</defs>
</svg>
