<svg width="18" height="18" viewBox="0 0 18 18" fill="none" xmlns="http://www.w3.org/2000/svg">
<path d="M11.5 9C11.5 10.3807 10.3807 11.5 9 11.5C7.61929 11.5 6.5 10.3807 6.5 9C6.5 7.61929 7.61929 6.5 9 6.5C10.3807 6.5 11.5 7.61929 11.5 9Z" stroke="#AEB2B9" stroke-width="1.5" stroke-linecap="round" stroke-linejoin="round"/>
<path d="M9.75384 1.55004C9.58235 1.5 9.38823 1.5 9 1.5C8.61177 1.5 8.41765 1.5 8.24616 1.55004C7.99514 1.62328 7.77342 1.7734 7.61219 1.97926C7.50204 2.1199 7.42995 2.30013 7.28576 2.6606C7.07849 3.17876 6.50328 3.44559 5.97381 3.26917L5.49816 3.11067C5.16075 2.9982 4.99204 2.94197 4.82663 2.93233C4.58366 2.91818 4.34184 2.97526 4.13084 3.09659C3.98721 3.17918 3.86146 3.30492 3.60997 3.55641C3.34268 3.8237 3.20903 3.95735 3.12413 4.10991C2.99939 4.33404 2.94663 4.59111 2.97299 4.84626C2.99093 5.01992 3.06113 5.19541 3.20152 5.54638C3.42137 6.09603 3.20986 6.72399 2.70227 7.02861L2.47101 7.16739C2.11693 7.37984 1.93988 7.48607 1.81129 7.63232C1.69748 7.76174 1.61167 7.9133 1.55925 8.07747C1.5 8.26299 1.5 8.47151 1.5 8.88855C1.5 9.38238 1.5 9.62929 1.57885 9.84064C1.64852 10.0274 1.76185 10.1948 1.90936 10.3288C2.07631 10.4805 2.30329 10.5713 2.75722 10.7529C3.22111 10.9384 3.45997 11.4534 3.30197 11.9274L3.12268 12.4653C2.99849 12.8379 2.9364 13.0241 2.93075 13.2072C2.92396 13.4272 2.97541 13.6452 3.07989 13.839C3.16679 14.0001 3.30565 14.139 3.58333 14.4167C3.86103 14.6944 3.99987 14.8332 4.16104 14.9201C4.35483 15.0246 4.57278 15.076 4.79283 15.0693C4.97585 15.0636 5.16214 15.0015 5.5347 14.8773L5.97385 14.7309C6.50328 14.5545 7.0785 14.8213 7.28576 15.3394C7.42995 15.6999 7.50204 15.8801 7.61219 16.0207C7.77342 16.2266 7.99514 16.3767 8.24616 16.45C8.41765 16.5 8.61177 16.5 9 16.5C9.38823 16.5 9.58235 16.5 9.75384 16.45C10.0049 16.3767 10.2266 16.2266 10.3878 16.0207C10.498 15.8801 10.5701 15.6999 10.7142 15.3394C10.9215 14.8213 11.4967 14.5545 12.0261 14.731L12.465 14.8774C12.8375 15.0016 13.0238 15.0637 13.2068 15.0693C13.4269 15.0761 13.6448 15.0247 13.8386 14.9202C13.9998 14.8333 14.1386 14.6944 14.4163 14.4167C14.694 14.139 14.8329 14.0002 14.9198 13.839C15.0242 13.6452 15.0757 13.4273 15.0689 13.2072C15.0633 13.0242 15.0012 12.8379 14.877 12.4654L14.6978 11.9278C14.5397 11.4537 14.7787 10.9385 15.2428 10.7529C15.6967 10.5713 15.9237 10.4805 16.0906 10.3288C16.2382 10.1948 16.3515 10.0274 16.4211 9.84064C16.5 9.62929 16.5 9.38238 16.5 8.88855C16.5 8.47151 16.5 8.26299 16.4408 8.07747C16.3883 7.9133 16.3025 7.76174 16.1887 7.63232C16.0601 7.48607 15.8831 7.37984 15.529 7.16739L15.2974 7.02846C14.7898 6.7239 14.5783 6.09595 14.7981 5.54632C14.9385 5.19536 15.0087 5.01985 15.0267 4.84619C15.053 4.59105 15.0003 4.33397 14.8755 4.10984C14.7906 3.95729 14.657 3.82364 14.3897 3.55635C14.1382 3.30487 14.0124 3.17911 13.8688 3.09652C13.6578 2.9752 13.416 2.91811 13.173 2.93227C13.0076 2.94191 12.8389 2.99814 12.5015 3.11061L12.0262 3.26906C11.4967 3.44554 10.9215 3.17875 10.7142 2.6606C10.5701 2.30013 10.498 2.1199 10.3878 1.97926C10.2266 1.7734 10.0049 1.62328 9.75384 1.55004Z" stroke="#AEB2B9" stroke-width="1.5" stroke-linecap="round" stroke-linejoin="round"/>
</svg>
