<svg width="22" height="22" viewBox="0 0 22 22" fill="none" xmlns="http://www.w3.org/2000/svg">
<g clip-path="url(#clip0_612_5404)">
<path d="M10.9998 20.9999C16.5226 20.9999 20.9998 16.5227 20.9998 10.9999C20.9998 5.47703 16.5226 0.999878 10.9998 0.999878C5.47691 0.999878 0.999756 5.47703 0.999756 10.9999C0.999756 16.5227 5.47691 20.9999 10.9998 20.9999Z" fill="#F0F0F0"/>
<path d="M10.5652 11.0001H21C21 10.0975 20.8796 9.22312 20.6555 8.39136H10.5652V11.0001Z" fill="#D80027"/>
<path d="M10.5652 5.78266H19.5322C18.9201 4.78375 18.1374 3.90083 17.2248 3.17395H10.5652V5.78266Z" fill="#D80027"/>
<path d="M11 21.0001C13.3535 21.0001 15.5166 20.1866 17.2248 18.8262H4.77515C6.48335 20.1866 8.64651 21.0001 11 21.0001Z" fill="#D80027"/>
<path d="M2.46772 16.2175H19.5323C20.0237 15.4156 20.4048 14.539 20.6555 13.6088H1.34448C1.59515 14.539 1.97628 15.4156 2.46772 16.2175Z" fill="#D80027"/>
<path d="M5.63194 2.56152H6.54323L5.69558 3.17734L6.01937 4.17378L5.17175 3.55796L4.32413 4.17378L4.60382 3.31296C3.85749 3.93464 3.20335 4.663 2.66429 5.47457H2.95628L2.41671 5.86656C2.33265 6.00679 2.25202 6.14925 2.17476 6.29382L2.43241 7.08683L1.95171 6.73757C1.83222 6.99074 1.72292 7.2496 1.62468 7.51386L1.90854 8.38761H2.95628L2.10862 9.00343L2.43241 9.99988L1.58479 9.38406L1.07706 9.75296C1.02624 10.1615 0.999756 10.5776 0.999756 10.9999H10.9998C10.9998 5.47707 10.9998 4.82597 10.9998 0.999878C9.02429 0.999878 7.18276 1.57292 5.63194 2.56152ZM6.01937 9.99988L5.17175 9.38406L4.32413 9.99988L4.64792 9.00343L3.80026 8.38761H4.848L5.17175 7.39117L5.4955 8.38761H6.54323L5.69558 9.00343L6.01937 9.99988ZM5.69558 6.09039L6.01937 7.08683L5.17175 6.47101L4.32413 7.08683L4.64792 6.09039L3.80026 5.47457H4.848L5.17175 4.47812L5.4955 5.47457H6.54323L5.69558 6.09039ZM9.60632 9.99988L8.7587 9.38406L7.91108 9.99988L8.23487 9.00343L7.38722 8.38761H8.43495L8.7587 7.39117L9.08245 8.38761H10.1302L9.28253 9.00343L9.60632 9.99988ZM9.28253 6.09039L9.60632 7.08683L8.7587 6.47101L7.91108 7.08683L8.23487 6.09039L7.38722 5.47457H8.43495L8.7587 4.47812L9.08245 5.47457H10.1302L9.28253 6.09039ZM9.28253 3.17734L9.60632 4.17378L8.7587 3.55796L7.91108 4.17378L8.23487 3.17734L7.38722 2.56152H8.43495L8.7587 1.56507L9.08245 2.56152H10.1302L9.28253 3.17734Z" fill="#0052B4"/>
</g>
<rect x="1" y="1" width="20" height="20" rx="10" stroke="#CCCFD3"/>
<defs>
<clipPath id="clip0_612_5404">
<rect x="1" y="1" width="20" height="20" rx="10" fill="white"/>
</clipPath>
</defs>
</svg>
