<svg width="32" height="33" viewBox="0 0 32 33" fill="none" xmlns="http://www.w3.org/2000/svg">
<path d="M0 16.5C0 7.66344 7.16344 0.5 16 0.5C24.8366 0.5 32 7.66344 32 16.5C32 25.3366 24.8366 32.5 16 32.5C7.16344 32.5 0 25.3366 0 16.5Z" fill="#2A2A2E"/>
<path d="M20 11.5C20 13.7091 18.2091 15.5 16 15.5C13.7909 15.5 12 13.7091 12 11.5C12 9.29086 13.7909 7.5 16 7.5C18.2091 7.5 20 9.29086 20 11.5Z" stroke="#B2B2B2" stroke-width="1.5" stroke-linecap="round" stroke-linejoin="round"/>
<path d="M16 18.5C12.134 18.5 9 21.634 9 25.5H23C23 21.634 19.866 18.5 16 18.5Z" stroke="#B2B2B2" stroke-width="1.5" stroke-linecap="round" stroke-linejoin="round"/>
</svg>
