<svg width="22" height="22" viewBox="0 0 22 22" fill="none" xmlns="http://www.w3.org/2000/svg">
<g clip-path="url(#clip0_612_5356)">
<path d="M1.47219 7.95653C1.16586 8.91622 0.999961 9.9386 1 10.9999C0.999961 12.0612 1.1659 13.0837 1.47223 14.0434L11 14.4782L20.5278 14.0434C20.8341 13.0837 21 12.0612 21 11C21 9.93864 20.8341 8.91622 20.5278 7.95649L11 7.52173L1.47219 7.95653Z" fill="#F0F0F0"/>
<path d="M20.5277 7.95662L10.9999 7.52185L1.47212 7.95662C1.38134 8.24115 1.30318 8.53126 1.23767 8.82619H20.762C20.6966 8.53123 20.6185 8.24107 20.5277 7.95662Z" fill="#D80027"/>
<path d="M1.23779 13.174C1.30322 13.4689 1.38139 13.759 1.47217 14.0435L1.47311 14.0435L10.9999 14.4783L20.5277 14.0435C20.6185 13.759 20.6966 13.4689 20.7621 13.174H1.23779Z" fill="#D80027"/>
<path d="M11 20.9999C15.4616 20.9999 19.2401 18.0779 20.5278 14.0433H1.47229C2.75999 18.0778 6.53858 20.9999 11 20.9999Z" fill="#6DA544"/>
<path d="M10.9999 1C6.53846 1.00004 2.75994 3.92203 1.47217 7.95652L20.5277 7.95656C19.2401 3.92199 15.4615 0.999961 10.9999 1Z" fill="#338AF3"/>
<path d="M5.56972 5.13044C5.56972 4.19383 6.22796 3.41141 7.10698 3.21946C6.9719 3.18993 6.83171 3.17395 6.68772 3.17395C5.60718 3.17395 4.7312 4.04989 4.7312 5.13047C4.7312 6.21106 5.6071 7.087 6.68772 7.087C6.83171 7.087 6.97187 7.07098 7.10698 7.04149C6.228 6.84946 5.56972 6.06704 5.56972 5.13044Z" fill="#F0F0F0"/>
<path d="M8.26336 6.01965L8.39579 6.42727H8.82438L8.47766 6.67922L8.61008 7.08684L8.26336 6.83493L7.91657 7.08684L8.04903 6.67922L7.70227 6.42727H8.13086L8.26336 6.01965Z" fill="#F0F0F0"/>
<path d="M9.63133 6.01965L9.76379 6.42727H10.1924L9.84562 6.67922L9.97809 7.08684L9.63133 6.83493L9.28457 7.08684L9.41703 6.67922L9.07031 6.42727H9.49887L9.63133 6.01965Z" fill="#F0F0F0"/>
<path d="M10.9993 6.01965L11.1317 6.42727H11.5604L11.2136 6.67922L11.346 7.08684L10.9993 6.83493L10.6525 7.08684L10.785 6.67922L10.4382 6.42727H10.8669L10.9993 6.01965Z" fill="#F0F0F0"/>
<path d="M12.3674 6.01965L12.4998 6.42727H12.9284L12.5817 6.67922L12.7141 7.08684L12.3674 6.83493L12.0206 7.08684L12.1531 6.67922L11.8063 6.42727H12.2349L12.3674 6.01965Z" fill="#F0F0F0"/>
<path d="M13.7352 6.01965L13.8677 6.42727H14.2963L13.9495 6.67922L14.082 7.08684L13.7352 6.83493L13.3885 7.08684L13.5209 6.67922L13.1742 6.42727H13.6027L13.7352 6.01965Z" fill="#F0F0F0"/>
<path d="M9.63133 4.5968L9.76379 5.00438H10.1924L9.84562 5.25637L9.97809 5.66395L9.63133 5.41204L9.28457 5.66395L9.41703 5.25637L9.07031 5.00438H9.49887L9.63133 4.5968Z" fill="#F0F0F0"/>
<path d="M10.9993 4.5968L11.1317 5.00438H11.5604L11.2136 5.25637L11.346 5.66395L10.9993 5.41204L10.6525 5.66395L10.785 5.25637L10.4382 5.00438H10.8669L10.9993 4.5968Z" fill="#F0F0F0"/>
<path d="M12.3674 4.5968L12.4998 5.00438H12.9284L12.5817 5.25637L12.7141 5.66395L12.3674 5.41204L12.0206 5.66395L12.1531 5.25637L11.8063 5.00438H12.2349L12.3674 4.5968Z" fill="#F0F0F0"/>
<path d="M13.7352 4.5968L13.8677 5.00438H14.2963L13.9495 5.25637L14.082 5.66395L13.7352 5.41204L13.3885 5.66395L13.5209 5.25637L13.1742 5.00438H13.6027L13.7352 4.5968Z" fill="#F0F0F0"/>
<path d="M10.9993 3.17383L11.1317 3.58148H11.5604L11.2136 3.8334L11.346 4.24105L10.9993 3.98914L10.6525 4.24105L10.785 3.8334L10.4382 3.58148H10.8669L10.9993 3.17383Z" fill="#F0F0F0"/>
<path d="M12.3674 3.17383L12.4998 3.58148H12.9284L12.5817 3.8334L12.7141 4.24105L12.3674 3.98914L12.0206 4.24105L12.1531 3.8334L11.8063 3.58148H12.2349L12.3674 3.17383Z" fill="#F0F0F0"/>
<path d="M13.7352 3.17383L13.8677 3.58148H14.2963L13.9495 3.8334L14.082 4.24105L13.7352 3.98914L13.3885 4.24105L13.5209 3.8334L13.1742 3.58148H13.6027L13.7352 3.17383Z" fill="#F0F0F0"/>
</g>
<rect x="1" y="1" width="20" height="20" rx="10" stroke="#CCCFD3"/>
<defs>
<clipPath id="clip0_612_5356">
<rect x="1" y="1" width="20" height="20" rx="10" fill="white"/>
</clipPath>
</defs>
</svg>
