<svg width="22" height="21" viewBox="0 0 22 21" fill="none" xmlns="http://www.w3.org/2000/svg">
<path d="M2 1.5L20 19.5M8.84428 8.41364C8.32164 8.95355 8 9.68921 8 10.5C8 12.1569 9.34315 13.5 11 13.5C11.8225 13.5 12.5677 13.169 13.1096 12.633M5.5 5.14715C3.60069 6.40034 2.15403 8.28394 1.45801 10.5C2.73226 14.5571 6.52256 17.5 11.0002 17.5C12.9891 17.5 14.8424 16.9194 16.3998 15.9184M10 3.54939C10.329 3.51673 10.6626 3.5 11.0002 3.5C15.4778 3.5 19.2681 6.44291 20.5424 10.5C20.2616 11.394 19.8587 12.2338 19.3532 13" stroke="#2A2A2E" stroke-width="1.5" stroke-linecap="round" stroke-linejoin="round"/>
</svg>
