<svg width="32" height="32" viewBox="0 0 32 32" fill="none" xmlns="http://www.w3.org/2000/svg">
<path d="M0 16C0 7.16344 7.16344 0 16 0C24.8366 0 32 7.16344 32 16C32 24.8366 24.8366 32 16 32C7.16344 32 0 24.8366 0 16Z" fill="#F4F4F4"/>
<path d="M16 23H10.2C9.07989 23 8.51984 23 8.09202 22.782C7.71569 22.5903 7.40973 22.2843 7.21799 21.908C7 21.4802 7 20.9201 7 19.8V12.2C7 11.0799 7 10.5198 7.21799 10.092C7.40973 9.71569 7.71569 9.40973 8.09202 9.21799C8.51984 9 9.0799 9 10.2 9H21.8C22.9201 9 23.4802 9 23.908 9.21799C24.2843 9.40973 24.5903 9.71569 24.782 10.092C25 10.5198 25 11.0799 25 12.2V18M7 13H25M25 22.0007L20 22" stroke="#B1B1B4" stroke-width="1.5" stroke-linecap="round" stroke-linejoin="round"/>
</svg>
